<svg xmlns="http://www.w3.org/2000/svg" width="105.904" height="105.54" viewBox="0 0 105.904 105.54"><path d="M93.742,4.219a14.619,14.619,0,0,0-20.607,0L67.976,9.388l-54.911,54.7-.117.117c-.028.028-.028.058-.058.058-.058.087-.146.174-.2.261,0,.029-.03.029-.03.058-.058.087-.087.145-.146.233-.028.029-.028.057-.057.087-.029.087-.058.145-.088.233,0,.028-.028.028-.028.058L.154,101.705a2.852,2.852,0,0,0,.7,2.962,2.938,2.938,0,0,0,2.07.843,3.45,3.45,0,0,0,.933-.145L40.463,93.194c.028,0,.028,0,.058-.028a1.057,1.057,0,0,0,.262-.117.1.1,0,0,0,.059-.028c.087-.058.2-.117.291-.175s.175-.144.263-.2c.029-.03.057-.03.057-.058.03-.029.088-.057.118-.116L101.64,32.6a14.5,14.5,0,0,0,0-20.537ZM39.531,86.367,19.245,66.15l50.772-50.6L90.3,35.765ZM16.388,71.524,34.11,89.185,7.5,98.016ZM97.531,28.532l-3.09,3.109L74.155,11.422l3.12-3.108a8.763,8.763,0,0,1,12.357,0l7.927,7.9a8.721,8.721,0,0,1-.028,12.317Zm0,0" transform="translate(0.001 0.029)"/></svg>