<svg xmlns="http://www.w3.org/2000/svg" width="89.383" height="110.052" viewBox="0 0 89.383 110.052"><path d="M224.975,154.7a2.577,2.577,0,0,0-2.577,2.577v48.711a2.577,2.577,0,1,0,5.155,0V157.28A2.577,2.577,0,0,0,224.975,154.7Zm0,0" transform="translate(-165.078 -114.831)"/><path d="M106.975,154.7a2.577,2.577,0,0,0-2.577,2.577v48.711a2.577,2.577,0,1,0,5.155,0V157.28A2.577,2.577,0,0,0,106.975,154.7Zm0,0" transform="translate(-77.49 -114.831)"/><path d="M7.317,32.762v63.5a14.219,14.219,0,0,0,3.78,9.807,12.692,12.692,0,0,0,9.209,3.982H69.07a12.689,12.689,0,0,0,9.209-3.982,14.22,14.22,0,0,0,3.78-9.807v-63.5A9.845,9.845,0,0,0,79.533,13.4h-13.2V10.179A10.124,10.124,0,0,0,56.131,0H33.245a10.124,10.124,0,0,0-10.207,10.18V13.4H9.843A9.845,9.845,0,0,0,7.317,32.762ZM69.07,104.9H20.306c-4.407,0-7.835-3.785-7.835-8.634V32.989H76.9V96.262c0,4.849-3.428,8.634-7.835,8.634ZM28.193,10.179a4.965,4.965,0,0,1,5.052-5.026H56.131a4.965,4.965,0,0,1,5.052,5.026V13.4H28.193ZM9.843,18.556h69.69a4.639,4.639,0,1,1,0,9.278H9.843a4.639,4.639,0,0,1,0-9.278Zm0,0" transform="translate(0.003 0.002)"/><path d="M165.975,154.7a2.577,2.577,0,0,0-2.577,2.577v48.711a2.577,2.577,0,1,0,5.155,0V157.28A2.577,2.577,0,0,0,165.975,154.7Zm0,0" transform="translate(-121.284 -114.831)"/></svg>