<svg xmlns="http://www.w3.org/2000/svg" width="97.58" height="97.578" viewBox="0 0 97.58 97.578"><g transform="translate(0 0)"><path d="M91.862,52.146V43.078A2.859,2.859,0,0,0,89,40.22a86.24,86.24,0,0,0-16.614,1.516,25.811,25.811,0,0,0-10.732-6.214,20.012,20.012,0,1,0-25.734,0A25.816,25.816,0,0,0,25.19,41.735,86.255,86.255,0,0,0,8.576,40.219a2.859,2.859,0,0,0-2.859,2.859v9.068A8.59,8.59,0,0,0,0,60.231v5.718a8.59,8.59,0,0,0,5.718,8.085V83.1A2.859,2.859,0,0,0,8.576,85.96C23.524,85.96,35.8,89.5,47.2,97.105a2.868,2.868,0,0,0,3.172,0C61.782,89.5,74.056,85.96,89,85.96A2.859,2.859,0,0,0,91.862,83.1V74.033a8.59,8.59,0,0,0,5.718-8.085V60.231A8.591,8.591,0,0,0,91.862,52.146ZM34.5,20.208A14.294,14.294,0,1,1,48.79,34.5,14.406,14.406,0,0,1,34.5,20.208Zm-25.92,48.6a2.862,2.862,0,0,1-2.859-2.859V60.231a2.859,2.859,0,0,1,5.718,0v5.718A2.862,2.862,0,0,1,8.576,68.807ZM45.931,89.6c-10.378-5.935-21.514-8.935-34.5-9.314v-6.25a8.59,8.59,0,0,0,5.718-8.085V60.231a8.59,8.59,0,0,0-5.718-8.085V45.977c13.433.386,24.23,3.549,34.5,10.085ZM48.79,51.109a67.941,67.941,0,0,0-16.632-7.646A20.053,20.053,0,0,1,43.072,40.22H54.507a20.053,20.053,0,0,1,10.914,3.244A67.938,67.938,0,0,0,48.79,51.109ZM86.144,80.284c-12.981.379-24.118,3.379-34.5,9.314V56.065c10.266-6.537,21.063-9.7,34.5-10.087v6.169a8.59,8.59,0,0,0-5.718,8.085v5.718a8.59,8.59,0,0,0,5.718,8.085Zm5.718-14.335a2.859,2.859,0,1,1-5.718,0V60.231a2.859,2.859,0,1,1,5.718,0Z" transform="translate(0 -0.006)"/></g></svg>