<svg xmlns="http://www.w3.org/2000/svg" width="348.21" height="294.6" viewBox="0 0 348.21 294.6"><defs><style>.a,.e,.f,.g,.h,.i{fill:none;}.a{stroke:#000;stroke-width:1.02px;}.b{fill:#80defc;}.b,.j{font-size:20px;}.b,.d,.j{font-family:Arial-ItalicMT, Arial;font-style:italic;}.c{fill:#e84855;font-size:19.5px;font-family:ArialMT, Arial;}.d,.j{fill:#2c2a4a;}.d{font-size:21.3px;}.e,.h{stroke:#2c2a4a;}.e{stroke-width:1.04px;}.f{stroke:#fff;}.g{stroke:#b8e7ff;}.i{stroke:#e84855;stroke-width:1.9px;}</style></defs><g transform="translate(3.8 3.2)"><path class="a" d="M59.9,247.4V34.8"/><text class="b" transform="translate(96.9 271.1)"><tspan x="0" y="0">1</tspan></text><text class="c" transform="translate(27.2 94.6)"><tspan x="0" y="0">15</tspan></text><text class="c" transform="translate(27.1 41.1)"><tspan x="0" y="0">20</tspan></text><text class="c" transform="translate(27.1 147.8)"><tspan x="0" y="0">10</tspan></text><text class="c" transform="translate(39.6 200.9)"><tspan x="0" y="0">5</tspan></text><text class="c" transform="translate(39.5 254.2)"><tspan x="0" y="0">0</tspan></text><text class="d" transform="translate(126.1 15.8)"><tspan x="0" y="0">Cartes trouvées</tspan></text><text class="c" transform="translate(14.2 167.2) rotate(-90)"><tspan x="0" y="0">Cartes</tspan></text><text class="b" transform="translate(163.4 271.1)"><tspan x="0" y="0">2</tspan></text><text class="b" transform="translate(230.1 271.1)"><tspan x="0" y="0">3</tspan></text><text class="b" transform="translate(298 271.1)"><tspan x="0" y="0">4</tspan></text><path class="e" d="M59.9,88h284"/><path class="e" d="M59.9,141.2h284"/><path class="e" d="M59.9,194.5h284"/><path class="e" d="M59.9,247.7h284"/><path class="e" d="M59.9,34.8h284"/><path class="f" d="M59.9,98.7h284"/><path class="f" d="M59.9,151.9h284"/><path class="f" d="M59.9,205.1h284"/><path class="f" d="M59.9,45.4h284"/><path class="f" d="M59.9,98.7h284" transform="translate(0 10.65)"/><path class="f" d="M59.9,151.9h284" transform="translate(0 10.65)"/><path class="f" d="M59.9,205.1h284" transform="translate(0 10.65)"/><path class="f" d="M59.9,45.4h284" transform="translate(0 10.65)"/><path class="g" d="M59.9,98.7h284" transform="translate(0 21.3)"/><path class="g" d="M59.9,151.9h284" transform="translate(0 21.3)"/><path class="g" d="M59.9,205.1h284" transform="translate(0 21.3)"/><path class="g" d="M59.9,45.4h284" transform="translate(0 21.3)"/><path class="f" d="M59.9,98.7h284" transform="translate(0 21.3)"/><path class="f" d="M59.9,151.9h284" transform="translate(0 21.3)"/><path class="f" d="M59.9,205.1h284" transform="translate(0 21.3)"/><path class="f" d="M59.9,45.4h284" transform="translate(0 21.3)"/><path class="a" d="M343.9,247.4V34.8"/><path class="h" d="M101.4,34.8v212"/><path class="h" d="M168.6,34.3V247.7"/><path class="h" d="M235.8,34.7V248.1"/><path class="h" d="M303,34.3V247.7"/><path class="i" d="M101.4,215.8l67.2-10.7,67.2-85.2L303,88"/><text class="j" transform="translate(101.6 212.2)"><tspan x="0" y="0">3</tspan></text><text class="j" transform="translate(174 217.1)"><tspan x="0" y="0">4</tspan></text><text class="j" transform="translate(210.2 116.3)"><tspan x="0" y="0">12</tspan></text><text class="j" transform="translate(292.4 83.5)"><tspan x="0" y="0">15</tspan></text><text class="b" transform="translate(181 287.4)"><tspan x="0" y="0">Jour</tspan></text></g></svg>